<?xml version="1.0" standalone="no"?>
<!DOCTYPE svg PUBLIC "-//W3C//DTD SVG 20010904//EN"
 "http://www.w3.org/TR/2001/REC-SVG-20010904/DTD/svg10.dtd">
<svg version="1.0" xmlns="http://www.w3.org/2000/svg"
 width="720.000000pt" height="720.000000pt" viewBox="0 0 720.000000 720.000000"
 preserveAspectRatio="xMidYMid meet">
<metadata>
Created by potrace 1.11, written by Peter Selinger 2001-2013
</metadata>
<g transform="translate(0.000000,720.000000) scale(0.100000,-0.100000)"
fill="#000000" stroke="none">
<path d="M3140 6674 c-546 -84 -1055 -308 -1500 -663 -122 -97 -364 -339 -461
-461 -319 -400 -528 -841 -628 -1322 -16 -79 -33 -170 -36 -203 l-7 -61 98
-46 c598 -280 1335 -235 1901 115 873 542 1203 1638 774 2570 -22 48 -41 87
-43 86 -2 -1 -46 -7 -98 -15z"/>
<path d="M4900 4271 l0 -2161 725 0 725 0 39 78 c130 258 232 565 285 852 44
237 59 614 36 851 -105 1061 -731 1987 -1669 2468 l-141 72 0 -2160z"/>
<path d="M2557 2562 l-1167 -1167 67 -66 c550 -534 1337 -849 2119 -849 l164
0 0 1625 c0 894 -3 1625 -8 1625 -4 0 -532 -525 -1175 -1168z"/>
</g>
</svg>
