<?xml version="1.0" encoding="utf-8"?>
<!-- Generator: Adobe Illustrator 16.0.0, SVG Export Plug-In . SVG Version: 6.00 Build 0)  -->
<!DOCTYPE svg PUBLIC "-//W3C//DTD SVG 1.1//EN" "http://www.w3.org/Graphics/SVG/1.1/DTD/svg11.dtd">
<svg version="1.1" id="Layer_1" xmlns="http://www.w3.org/2000/svg" xmlns:xlink="http://www.w3.org/1999/xlink" x="0px" y="0px"
	 width="180px" height="44px" viewBox="0 0 180 44" enable-background="new 0 0 180 44" xml:space="preserve">
<path fill="#FFFFFF" d="M69.702,21.296c0,3.883-3.402,6.483-7.702,6.483c-4.301,0-7.735-2.6-7.735-6.483v-1.477h4.878v1.669
	c0,1.573,1.22,2.792,2.857,2.792c1.667,0,2.921-1.219,2.921-2.792V3.645h4.781V21.296z"/>
<path fill="#FFFFFF" d="M76.44,8.652c-1.67,0-3.049-1.284-3.049-2.888c0-1.605,1.379-2.92,3.049-2.92
	c1.668,0,3.049,1.315,3.049,2.92C79.489,7.368,78.108,8.652,76.44,8.652z M74.033,27.395V10.77h4.847v16.625H74.033z"/>
<path fill="#FFFFFF" d="M95.118,27.428V17.35c0-1.669-0.932-3.146-2.92-3.146c-2.215,0-4.172,1.572-4.172,3.658v9.565h-4.846V3.613
	h4.846v8.185c1.314-0.802,3.016-1.22,4.974-1.22c4.108,0,6.964,2.342,6.964,5.874v10.977H95.118z"/>
<path fill="#FFFFFF" d="M111.741,28.1c-4.91,0-8.89-3.979-8.89-8.825c0-4.847,3.979-8.826,8.89-8.826s8.89,3.979,8.89,8.826
	C120.631,24.121,116.651,28.1,111.741,28.1z M111.741,13.915c-2.246,0-4.043,2.44-4.043,5.36c0,2.92,1.797,5.358,4.043,5.358
	s4.044-2.438,4.044-5.358C115.785,16.354,113.987,13.915,111.741,13.915z"/>
<path fill="#FFFFFF" d="M123.807,27.428V3.613h4.847v20.284h12.355v3.531H123.807z"/>
<path fill="#FFFFFF" d="M160.071,20.943h-12.58c0.385,2.152,2.086,3.66,3.883,3.66c1.252,0,2.633-0.932,3.338-2.505h5.135
	c-1.701,3.819-4.814,6.032-8.473,6.032c-4.91,0-8.922-3.979-8.922-8.856c0-4.878,4.107-8.826,8.891-8.826
	c4.845,0,8.761,3.947,8.761,8.826C160.104,19.692,160.104,20.463,160.071,20.943z M147.587,17.286h7.414
	c-0.416-1.831-1.926-3.339-3.658-3.339C149.64,13.947,148.037,15.392,147.587,17.286z"/>
<path fill="#FFFFFF" d="M179.968,20.943h-12.58c0.386,2.152,2.086,3.66,3.884,3.66c1.252,0,2.632-0.932,3.337-2.505h5.135
	c-1.701,3.819-4.814,6.032-8.472,6.032c-4.911,0-8.923-3.979-8.923-8.856c0-4.878,4.108-8.826,8.891-8.826
	c4.846,0,8.761,3.947,8.761,8.826C180,19.692,180,20.463,179.968,20.943z M167.483,17.286h7.414
	c-0.416-1.831-1.926-3.339-3.658-3.339C169.538,13.947,167.934,15.392,167.483,17.286z"/>
<g>
	<path fill="#FFFFFF" d="M55.792,38.217l2.38,1.318c0.12,0.068,0.198,0.127,0.238,0.18s0.06,0.121,0.06,0.201
		c0,0.104-0.037,0.191-0.111,0.268c-0.074,0.074-0.16,0.113-0.259,0.113c-0.063,0-0.16-0.035-0.29-0.109l-3.545-1.971l3.545-1.971
		c0.13-0.07,0.226-0.104,0.287-0.104c0.1,0,0.188,0.037,0.262,0.109c0.074,0.076,0.111,0.164,0.111,0.266
		c0,0.082-0.02,0.148-0.06,0.201s-0.118,0.113-0.238,0.18L55.792,38.217z"/>
	<path fill="#FFFFFF" d="M65.93,39.574v-2.873c-0.155-0.002-0.27-0.039-0.344-0.105c-0.074-0.068-0.112-0.156-0.112-0.264
		c0-0.111,0.039-0.199,0.113-0.268c0.076-0.068,0.203-0.104,0.379-0.104l1.537,0.004c0.238,0,0.473,0.045,0.701,0.135
		c0.229,0.086,0.412,0.199,0.55,0.336c0.105,0.102,0.215,0.244,0.328,0.422c0.114,0.18,0.2,0.357,0.257,0.537
		c0.057,0.174,0.086,0.393,0.086,0.646v0.352c0,0.311-0.053,0.586-0.158,0.826s-0.243,0.438-0.414,0.588
		c-0.17,0.152-0.331,0.264-0.481,0.336c-0.239,0.113-0.55,0.168-0.929,0.168h-1.477c-0.176,0-0.303-0.033-0.379-0.102
		c-0.074-0.068-0.113-0.158-0.113-0.268s0.039-0.197,0.113-0.266C65.663,39.607,65.776,39.574,65.93,39.574z M66.665,39.574h0.781
		c0.291,0,0.511-0.041,0.659-0.125c0.193-0.107,0.34-0.248,0.438-0.418c0.097-0.17,0.146-0.391,0.146-0.66v-0.348
		c0-0.232-0.043-0.436-0.131-0.609c-0.141-0.271-0.296-0.459-0.468-0.561c-0.174-0.104-0.39-0.152-0.651-0.152h-0.773V39.574z"/>
	<path fill="#FFFFFF" d="M77.831,38.498v1.076h1.875v-0.396c0-0.176,0.033-0.305,0.102-0.379s0.156-0.111,0.268-0.111
		c0.107,0,0.194,0.037,0.263,0.111c0.067,0.074,0.103,0.203,0.103,0.379v1.133h-3.46c-0.177,0-0.302-0.033-0.377-0.102
		s-0.113-0.158-0.113-0.268s0.038-0.195,0.115-0.264c0.075-0.068,0.201-0.104,0.375-0.104h0.116v-2.873H76.98
		c-0.177,0-0.302-0.035-0.377-0.102c-0.075-0.068-0.113-0.156-0.113-0.268s0.038-0.199,0.113-0.268s0.2-0.104,0.377-0.104
		l3.299,0.004v1.119c0,0.174-0.033,0.301-0.101,0.375c-0.066,0.076-0.156,0.113-0.266,0.113s-0.197-0.037-0.267-0.111
		c-0.068-0.074-0.103-0.201-0.103-0.377v-0.383h-1.713v1.061h0.645c0-0.191,0.019-0.314,0.055-0.367
		c0.072-0.117,0.18-0.178,0.314-0.178c0.107,0,0.197,0.037,0.265,0.113c0.068,0.076,0.103,0.201,0.103,0.377v0.846
		c0,0.162-0.02,0.27-0.059,0.324c-0.076,0.111-0.179,0.168-0.309,0.168c-0.135,0-0.242-0.059-0.314-0.176
		c-0.036-0.055-0.055-0.178-0.055-0.371H77.831z"/>
	<path fill="#FFFFFF" d="M89.597,39.238l1.064-2.537h-0.168c-0.178,0-0.304-0.035-0.379-0.102c-0.075-0.068-0.113-0.156-0.113-0.268
		s0.038-0.199,0.113-0.268s0.201-0.104,0.379-0.104l0.984,0.004c0.177,0,0.303,0.033,0.379,0.102
		c0.074,0.066,0.112,0.154,0.112,0.266c0,0.131-0.058,0.234-0.171,0.312c-0.055,0.037-0.168,0.057-0.338,0.057l-1.51,3.609h-0.705
		l-1.505-3.609c-0.173,0-0.286-0.02-0.341-0.057c-0.115-0.076-0.172-0.18-0.172-0.312c0-0.111,0.037-0.199,0.113-0.268
		c0.074-0.068,0.2-0.104,0.377-0.104l0.993,0.004c0.174,0,0.3,0.033,0.374,0.102c0.076,0.066,0.113,0.154,0.113,0.266
		s-0.037,0.199-0.111,0.268c-0.073,0.066-0.199,0.102-0.376,0.102h-0.172L89.597,39.238z"/>
	<path fill="#FFFFFF" d="M99.856,38.498v1.076h1.873v-0.396c0-0.176,0.035-0.305,0.104-0.379s0.156-0.111,0.267-0.111
		c0.107,0,0.194,0.037,0.263,0.111s0.104,0.203,0.104,0.379v1.133h-3.46c-0.177,0-0.304-0.033-0.378-0.102
		c-0.075-0.068-0.113-0.158-0.113-0.268s0.039-0.195,0.115-0.264s0.202-0.104,0.376-0.104h0.115v-2.873h-0.115
		c-0.177,0-0.304-0.035-0.378-0.102c-0.075-0.068-0.113-0.156-0.113-0.268s0.038-0.199,0.113-0.268
		c0.074-0.068,0.201-0.104,0.378-0.104l3.298,0.004v1.119c0,0.174-0.033,0.301-0.101,0.375c-0.066,0.076-0.155,0.113-0.264,0.113
		c-0.111,0-0.2-0.037-0.269-0.111c-0.067-0.074-0.102-0.201-0.102-0.377v-0.383h-1.713v1.061h0.645c0-0.191,0.018-0.314,0.053-0.367
		c0.076-0.117,0.181-0.178,0.316-0.178c0.107,0,0.196,0.037,0.264,0.113c0.068,0.076,0.102,0.201,0.102,0.377v0.846
		c0,0.162-0.018,0.27-0.057,0.324c-0.076,0.111-0.18,0.168-0.309,0.168c-0.136,0-0.24-0.059-0.316-0.176
		c-0.035-0.055-0.053-0.178-0.053-0.371H99.856z"/>
	<path fill="#FFFFFF" d="M111.317,36.701v2.873h1.583v-0.693c0-0.178,0.034-0.305,0.103-0.379s0.158-0.113,0.268-0.113
		c0.106,0,0.194,0.039,0.264,0.113c0.067,0.074,0.102,0.201,0.102,0.379v1.43h-3.48c-0.178,0-0.303-0.033-0.379-0.102
		c-0.074-0.068-0.113-0.158-0.113-0.268s0.039-0.195,0.113-0.264c0.076-0.068,0.201-0.104,0.379-0.104h0.426v-2.873h-0.426
		c-0.178,0-0.303-0.035-0.379-0.102c-0.074-0.068-0.113-0.156-0.113-0.268s0.039-0.199,0.113-0.268
		c0.076-0.068,0.201-0.104,0.379-0.104l1.592,0.004c0.176,0,0.303,0.033,0.377,0.102c0.075,0.066,0.113,0.154,0.113,0.266
		s-0.038,0.199-0.113,0.268c-0.074,0.066-0.201,0.102-0.377,0.102H111.317z"/>
	<path fill="#FFFFFF" d="M124.698,38.137c0,0.652-0.207,1.197-0.622,1.631s-0.894,0.65-1.439,0.65c-0.489,0-0.932-0.182-1.325-0.541
		c-0.488-0.447-0.732-1.027-0.732-1.74c0-0.711,0.244-1.291,0.732-1.74c0.394-0.361,0.836-0.541,1.325-0.541
		c0.546,0,1.024,0.217,1.439,0.65S124.698,37.484,124.698,38.137z M123.964,38.137c0-0.445-0.136-0.814-0.406-1.107
		c-0.269-0.293-0.576-0.439-0.921-0.439c-0.341,0-0.647,0.146-0.917,0.441c-0.27,0.293-0.405,0.662-0.405,1.105
		c0,0.445,0.136,0.814,0.405,1.107s0.576,0.439,0.917,0.439c0.345,0,0.652-0.146,0.921-0.438
		C123.828,38.955,123.964,38.586,123.964,38.137z"/>
	<path fill="#FFFFFF" d="M133.224,38.82v0.754h0.741c0.177,0,0.304,0.035,0.378,0.104c0.075,0.068,0.113,0.158,0.113,0.268
		c0,0.107-0.038,0.195-0.113,0.264c-0.074,0.068-0.201,0.102-0.378,0.102h-1.592c-0.177,0-0.303-0.033-0.378-0.102
		s-0.113-0.158-0.113-0.268s0.039-0.195,0.115-0.264s0.201-0.104,0.376-0.104h0.115v-2.873h-0.115c-0.177,0-0.303-0.035-0.378-0.102
		c-0.075-0.068-0.113-0.156-0.113-0.268s0.038-0.199,0.113-0.268s0.201-0.104,0.378-0.104l1.692,0.004
		c0.497,0,0.89,0.137,1.181,0.408c0.29,0.271,0.436,0.602,0.436,0.992c0,0.213-0.049,0.416-0.147,0.607
		c-0.072,0.145-0.197,0.285-0.37,0.426c-0.173,0.139-0.351,0.244-0.53,0.316c-0.181,0.068-0.42,0.105-0.717,0.105H133.224z
		 M133.224,38.086h0.68c0.32,0,0.574-0.072,0.762-0.219c0.188-0.145,0.282-0.318,0.282-0.521c0-0.172-0.077-0.322-0.228-0.451
		c-0.152-0.129-0.369-0.193-0.65-0.193h-0.846V38.086z"/>
	<path fill="#FFFFFF" d="M143.905,38.498v1.076h1.874v-0.396c0-0.176,0.035-0.305,0.103-0.379c0.068-0.074,0.158-0.111,0.268-0.111
		c0.107,0,0.195,0.037,0.264,0.111s0.103,0.203,0.103,0.379v1.133h-3.46c-0.178,0-0.303-0.033-0.377-0.102
		c-0.077-0.068-0.113-0.158-0.113-0.268s0.037-0.195,0.113-0.264c0.078-0.068,0.203-0.104,0.377-0.104h0.115v-2.873h-0.115
		c-0.178,0-0.303-0.035-0.377-0.102c-0.077-0.068-0.113-0.156-0.113-0.268s0.036-0.199,0.113-0.268
		c0.074-0.068,0.199-0.104,0.377-0.104l3.299,0.004v1.119c0,0.174-0.035,0.301-0.102,0.375c-0.066,0.076-0.154,0.113-0.264,0.113
		c-0.111,0-0.199-0.037-0.268-0.111s-0.103-0.201-0.103-0.377v-0.383h-1.714v1.061h0.646c0-0.191,0.018-0.314,0.054-0.367
		c0.074-0.117,0.18-0.178,0.316-0.178c0.106,0,0.195,0.037,0.263,0.113c0.068,0.076,0.102,0.201,0.102,0.377v0.846
		c0,0.162-0.019,0.27-0.058,0.324c-0.075,0.111-0.179,0.168-0.307,0.168c-0.137,0-0.242-0.059-0.316-0.176
		c-0.036-0.055-0.054-0.178-0.054-0.371H143.905z"/>
	<path fill="#FFFFFF" d="M154.914,38.652v0.922h0.266c0.177,0,0.302,0.035,0.378,0.104c0.075,0.068,0.113,0.158,0.113,0.268
		c0,0.107-0.038,0.195-0.113,0.264c-0.076,0.068-0.201,0.102-0.378,0.102h-1.114c-0.178,0-0.305-0.033-0.379-0.102
		s-0.113-0.158-0.113-0.268s0.039-0.195,0.115-0.264s0.203-0.104,0.377-0.104h0.113v-2.873h-0.113c-0.178,0-0.305-0.035-0.379-0.102
		c-0.074-0.068-0.113-0.156-0.113-0.268s0.039-0.199,0.113-0.268s0.201-0.104,0.379-0.104l1.662,0.004
		c0.52,0,0.921,0.131,1.207,0.387c0.285,0.258,0.428,0.568,0.428,0.936c0,0.23-0.066,0.439-0.2,0.627s-0.335,0.354-0.605,0.5
		c0.155,0.137,0.319,0.311,0.497,0.523c0.109,0.137,0.259,0.35,0.445,0.637c0.186,0,0.31,0.021,0.369,0.059
		c0.107,0.074,0.161,0.178,0.161,0.312c0,0.107-0.038,0.195-0.11,0.264c-0.074,0.068-0.201,0.102-0.377,0.102h-0.42
		c-0.596-0.92-1.088-1.473-1.48-1.658H154.914z M154.914,37.916h0.573c0.213,0,0.404-0.031,0.57-0.096
		c0.225-0.088,0.375-0.178,0.453-0.273s0.117-0.191,0.117-0.283c0-0.139-0.074-0.268-0.223-0.385
		c-0.148-0.119-0.363-0.178-0.648-0.178h-0.843V37.916z"/>
	<path fill="#FFFFFF" d="M168.2,35.758l-2.355,5.076c-0.061,0.127-0.113,0.209-0.162,0.248c-0.062,0.049-0.137,0.074-0.226,0.074
		c-0.101,0-0.188-0.035-0.261-0.107c-0.072-0.07-0.109-0.152-0.109-0.244c0-0.062,0.029-0.158,0.087-0.283l2.362-5.072
		c0.059-0.125,0.113-0.207,0.158-0.246c0.064-0.051,0.139-0.076,0.226-0.076c0.101,0,0.186,0.035,0.259,0.105
		c0.07,0.072,0.107,0.15,0.107,0.242C168.286,35.539,168.257,35.635,168.2,35.758z"/>
	<path fill="#FFFFFF" d="M178.474,38.217l-2.381-1.318c-0.119-0.066-0.199-0.127-0.237-0.18c-0.04-0.053-0.06-0.119-0.06-0.201
		c0-0.102,0.037-0.189,0.11-0.266c0.075-0.072,0.161-0.109,0.263-0.109c0.061,0,0.157,0.033,0.286,0.104L180,38.217l-3.545,1.971
		c-0.129,0.074-0.226,0.109-0.286,0.109c-0.102,0-0.188-0.039-0.263-0.111c-0.073-0.074-0.11-0.164-0.11-0.27
		c0-0.08,0.02-0.148,0.06-0.201c0.038-0.053,0.118-0.111,0.237-0.18L178.474,38.217z"/>
</g>
<path fill="#FFFFFF" d="M6.589,20.931c7.823,0,14.165-6.342,14.165-14.164c0-2.364-0.581-4.593-1.605-6.552
	C9.145,1.39,1.204,9.312,0,19.307C1.968,20.343,4.21,20.931,6.589,20.931z"/>
<path fill="#FFFFFF" d="M21.673,43.785c0.326,0,0.651-0.008,0.975-0.021V20.896L6.183,37.361c0.011,0.01,0.021,0.02,0.032,0.031
	C10.174,41.342,15.638,43.785,21.673,43.785z"/>
<path fill="#FFFFFF" d="M40.92,32.328c1.684-3.102,2.64-6.654,2.64-10.432c0-6.061-2.463-11.545-6.442-15.508
	c-1.832-1.812-3.983-3.302-6.36-4.38v30.321H40.92z"/>
</svg>
